<?xml version="1.0" encoding="UTF-8"?>
<svg xmlns="http://www.w3.org/2000/svg" viewBox="0 0 288.07 288.07">
  <defs>
    <style>.cls-1{fill:#fff;fill-rule:evenodd;}.cls-2{fill:#3b82f6;}</style>
  </defs>
  <path class="cls-1" d="M144.04,0C64.49,0,0,64.49,0,144.04s64.49,144.04,144.04,144.04,144.04-64.49,144.04-144.04S223.58,0,144.04,0ZM149.24,10.78c16.43,2.31,32.08,15.52,44.22,37.6,3.52,6.41,6.7,13.48,9.47,21.12-16.52-4.15-34.66-6.6-53.7-6.97V10.78ZM149.24,72.94c20.78.43,40.28,3.42,57.52,8.37,4.95,17.24,7.94,36.74,8.37,57.52h-22.48c-19.84-7.75-35.65-23.56-43.41-43.4v-22.49ZM215.13,149.24c-.43,20.78-3.42,40.28-8.37,57.52-17.24,4.95-36.74,7.94-57.52,8.37v-22.49c7.75-19.84,23.56-35.65,43.41-43.4h22.48ZM138.83,10.78v51.75c-19.04.38-37.18,2.83-53.7,6.97,2.77-7.64,5.95-14.72,9.47-21.12,12.15-22.08,27.79-35.29,44.22-37.6ZM138.83,72.94v22.47c-7.75,19.85-23.56,35.67-43.41,43.42h-22.48c.43-20.78,3.42-40.28,8.37-57.52,17.24-4.95,36.74-7.94,57.52-8.37ZM106.7,15.7c-8.05,7.26-15.2,16.71-21.22,27.66-4.86,8.84-9.08,18.79-12.52,29.6-10.81,3.44-20.76,7.66-29.6,12.52-10.95,6.02-20.4,13.17-27.66,21.22C28.41,62.92,62.92,28.41,106.7,15.7ZM48.38,94.61c6.41-3.52,13.48-6.7,21.12-9.47-4.15,16.52-6.6,34.66-6.98,53.7H10.78c2.31-16.43,15.52-32.08,37.6-44.22ZM62.52,149.24c.38,19.04,2.83,37.18,6.98,53.7-7.64-2.77-14.72-5.95-21.12-9.47-22.08-12.15-35.29-27.79-37.6-44.22h51.75ZM15.7,181.37c7.26,8.05,16.71,15.2,27.66,21.22,8.84,4.86,18.79,9.08,29.6,12.52,3.44,10.81,7.66,20.76,12.52,29.6,6.02,10.95,13.17,20.4,21.22,27.66-43.78-12.71-78.29-47.22-91-91ZM138.83,277.29c-16.43-2.31-32.08-15.52-44.22-37.6-3.52-6.41-6.7-13.48-9.47-21.12,16.52,4.15,34.66,6.6,53.7,6.98v51.75ZM138.83,215.13c-20.78-.43-40.28-3.42-57.52-8.37-4.95-17.24-7.94-36.74-8.37-57.52h22.48c19.85,7.75,35.66,23.57,43.41,43.42v22.47ZM127.28,144.04c0-9.25,7.5-16.76,16.76-16.76s16.76,7.5,16.76,16.76-7.5,16.76-16.76,16.76-16.76-7.5-16.76-16.76ZM149.24,277.29v-51.75c19.04-.38,37.18-2.83,53.7-6.98-2.77,7.64-5.95,14.72-9.47,21.12-12.15,22.08-27.79,35.29-44.22,37.6ZM181.37,272.37c8.05-7.26,15.2-16.71,21.22-27.66,4.86-8.84,9.08-18.79,12.52-29.6,10.81-3.44,20.76-7.66,29.6-12.52,10.95-6.02,20.4-13.17,27.66-21.22-12.71,43.78-47.22,78.29-91,91ZM239.69,193.47c-6.41,3.52-13.48,6.7-21.12,9.47,4.15-16.52,6.6-34.66,6.98-53.7h51.75c-2.31,16.43-15.52,32.08-37.6,44.22ZM225.55,138.83c-.38-19.04-2.83-37.18-6.98-53.7,7.64,2.77,14.72,5.95,21.12,9.47,22.08,12.15,35.29,27.79,37.6,44.22h-51.75ZM244.71,85.48c-8.84-4.86-18.79-9.08-29.6-12.52-3.44-10.81-7.66-20.76-12.52-29.6-6.02-10.95-13.17-20.4-21.22-27.66,43.78,12.71,78.29,47.22,91,91-7.26-8.05-16.71-15.2-27.66-21.22Z"/>
  <circle class="cls-2" cx="144.04" cy="144.04" r="16.76"/>
</svg>
